<?xml version="1.0" encoding="utf-8"?>
<svg xmlns:xlink="http://www.w3.org/1999/xlink" version="1.1" xml:space="preserve" xmlns:inkscape="http://www.inkscape.org/namespaces/inkscape" x="0" y="0" width="1366" height="455" clip-path="url(#MapClipRectangle)" style="overflow:hidden;text-rendering:optimizeLegibility" xmlns="http://www.w3.org/2000/svg">
	<title>Map Generated Using Maperitive (http://maperitive.net)</title>
	<desc>Map Generator: Maperitive v2.3.32 by Igor Brejc
Time: 05/23/2014 02:13:14
</desc>
	<defs>
		<clipPath clipPathUnits="userSpaceOnUse" id="MapClipRectangle">
			<rect x="0" y="0" width="1366" height="455" />
		</clipPath>
		<symbol id="3" style="fill:none">
			<path d="M883.63 198.1 l2.28 -0.58" />
			<path d="M944.26 224.57 l2.47 1.95" />
		</symbol>
		<symbol id="11" style="fill:none">
			<path d="M665.59 258.48 l-66.68 93.06 -27.44 38.93 -26.34 34.88 -38.89 55.25 -27.92 58.29 -7.08 20.54 -14.28 24.59 -17.66 38 -10.19 17.62 -14.27 17.98 -100.58 62.66 -60.41 24.08 -16.79 5.75 -17.55 4.52 -21.61 0.94 -23.07 0.52 -22.56 7.8 -22.74 13.17 -105.46 61.72 -83.3 40.96 -128.78 59.31 -93.42 71.67 -31.32 24.97 -15.82 19.06 -11.28 17.13 -58.97 145.27 -9.99 32.1 -5.3 20.34 -38.43 147.6 -10.39 42.4 -5.62 18.7 -17.69 40.04 -6.84 25.26 -9.34 78.74 -2.03 10.3 -6.53 19.59 -13.78 23.05 -21.89 16.05 -50.66 18.94 -28.45 12.26 -21.37 1.51 -36.48 -0.85 -29.66 2.63 -34.21 20.93 -26.08 25.87 -18.91 32.02 -15.52 34.08 -13.94 13.67 -35 27.76 -26.74 25.69 -64.53 81.07 -13.34 23.53 -11.1 34.42 -35.85 109.76 -9.35 15.84 -19.08 24.25 -68.66 57.09 -95.95 117.06 -14.33 20.78 -12.91 24.85 -7.36 31.82 -4.53 24.94 -16.82 100.38 -18.63 102.23 -7.77 26.04 -22.04 33.39 -232.51 312.53 -297.84 409.33 -111.49 153.11 -24.33 32.51 -28.11 38.11 -106.92 151.64 -166.48 188.64 -242.22 281.59 -236.17 269.27 -38.7 40.38 -196.62 168.7 -16.19 7.92" />
		</symbol>
		<symbol id="17" style="fill:none">
			<path d="M954.96 211.14 l1.44 4.19 0.04 9.97 4.22 4.78 8.41 0.97 8.07 1.11 11.87 -1.54 9.4 -1.92 2.63 8.83 10.48 2.78 10.16 5.6 2.05 5.93 5.02 3.2 5.71 3.2 2.51 6.39 4.34 15.52 3.88 19.86 0.68 15.06 4.79 8.9 4.79 15.98 4.11 10.04 2.51 12.55 2.97 11.87 5.48 11.41 9.13 16.43 9.13 20.08 16.66 22.14 13.92 21.68 15.75 14.15 21 10.95 9.36 6.62 2.51 3.88 5.02 2.97 5.91 9.23" />
			<path d="M743.95 356.8 l5.23 5.9 8.67 7.07 12.1 8.22 7.74 5.28 9.37 5.73 15.2 9.59 10.59 6.09 6.16 6.64 5.66 11.54 3.01 6.03 5.71 3.42 5.71 7.08 7.76 11.22 0.22 4.62 -8.48 6.73 -11.25 9.48 -6.07 6.9 -8.84 2.39" />
			<path d="M777.69 383.27 l1.12 8.76 2.28 11.41 4.11 14.38 13.92 29.9 7.76 17.35 5.55 15.66 2.67 4.43 8.9 16.89 20.54 31.5 16.43 29.21 6.85 18.03 7.3 17.35 10.04 15.52 16.43 18.26 9.36 10.95 5.02 12.1 4.56 11.41 4.11 7.08" />
			<path d="M858.8 -22.18 l3.44 5.55 4.44 3.22 5.88 5.44 3.5 4.99" />
			<path d="M800.14 264.03 l0.64 -6.07 0.81 -10.49 -0.45 -3.25 0.06 -1.79" />
			<path d="M736.66 352.26 l1.77 -0.56 5.13 -10.73 4.2 -1.3 8.86 -8.21 4.2 -6.06 2.18 -1.65 3.35 -7.75 0.48 -4.59" />
			<path d="M866.5 241 l-0.82 9.16 -1.85 24.98 -0.67 6.89 0.3 3.41 2.3 0.74 16.46 0.82 17.35 -2.82 7.56 -1.48" />
		</symbol>
		<symbol id="18" style="fill:none">
			<path d="M763.66 255.09 l-0.01 8.19 0 2.06 -0.55 3.81 0.36 3.61 -0.23 2.12" />
			<path d="M746.46 263.06 l4.86 0.99 3.29 0.67 9.03 0.62" />
			<path d="M596.4 11.44 l5.38 -0.14 6.49 0.72 3.52 -3.9 0.34 -5.64 0.69 -4.93" />
			<path d="M763.65 263.28 l9.91 0.28 2.78 -0.59" />
			<path d="M801.53 226.68 l0.23 5.6 29.32 1.06 0.18 -7.27" />
			<path d="M831.07 233.34 l-0.61 9.7 -1.17 1.06 -28.09 -1.67 -0.39 -1.23 0.5 -8.14 0.45 -0.78" />
			<path d="M776.5 243.82 l-4.69 -1.72 -4.07 -0.39 -2.07 -0.2 -0.91 -1.02 -2.84 -1.14 -7.65 -1.3 -1.38 0.83 -4.59 -0.48" />
			<path d="M981.01 138.27 l2.38 -6.9 1.15 -11.08" />
			<path d="M764.76 240.49 l0.45 -5.71" />
			<path d="M742.65 272.16 l4.99 1.62 3.67 -9.72" />
			<path d="M767.74 241.72 l-0.64 6.72 -1.36 0.5 -10.85 -1.58 -1.08 -1.08 0.46 -8.22 0.31 -5.89 -0.99 -1.36 0.22 -3.47" />
			<path d="M877.6 226.97 l-3.69 4.16 -4.19 5.02 -3.22 4.84 -11.29 10.22 -7.25 6.98 -6.14 6.92 -5.58 5.64 -11.1 14.34 -2.42 4.28 -6.9 5.54 -3.46 4.66 -10.98 3.43 -7.54 6.81 -8.37 13.39 -6.42 12 -8.37 10.32 -6.14 5.3 -12.28 5.3 -8.31 0.67 -4.89 0.71" />
			<path d="M706 102.97 l-1.18 13.17" />
			<path d="M743.48 270.46 l-16.9 -7.73 -9.47 -5.85 -3.4 -6" />
		</symbol>
		<symbol id="19" style="fill:none">
			<path d="M715.03 167.05 l-0.37 -3.68 2.82 -10.6 1.64 -12.3 1.08 -17.84" />
			<path d="M730.01 119.55 l-0.6 -2.35 2.15 -6.21 0.97 -4.01 19.31 -13.61 0.67 -1.97 2.82 -1.7 3.09 -3.92 1.41 -1.88" />
			<path d="M657.4 76.93 l17.06 4.67 12.21 1.96 27.78 4.65 19.23 2.6 15.49 -0.53 3.35 1.12" />
			<path d="M674.77 99.6 l31.23 3.38 11.7 1.86 14.84 2.16" />
			<path d="M978.19 145.81 l2.82 -7.54 -5.21 -3.08 -15.52 -6.76 -6.76 -2.37 -9.79 -2.74 -6.15 2.06 -10.55 -0.36 -11.89 -4.67 -8.86 -4.1 -3.9 1.05 -4.87 11.43 0.55 10.79 -1.58 6.09 -5.3 3.31 -14.66 8.23 -9.02 6.05 -1.47 2.83 -3.14 6.46 -0.53 5.99 1.9 4.66 4.11 2.36 9.59 3.2 3.91 1.92 4.04 10.83 -1.14 6.2 -2.79 7.16 -4.38 12.16" />
			<path d="M626.55 202.16 l1.78 5.59 2.42 7.62 3.37 6.01 1.36 2.43 4.13 9.76 4.09 6.81 4.65 7.67 0 3.68 -0.39 4.38 -4.44 7.26 -10.2 1.04 -15.31 5.46 -4.42 1.57 -10.73 -1.1 -1.35 -7.58 -0.69 -3.85 0.93 -4.63 1.22 -6.61 -2.8 -19.71 -5.09 -20 -1.23 -4.84 -2.16 -10.24 -0.12 -7.07" />
			<path d="M597.64 348.26 l3.27 -4.16 4.56 -9.99 0.22 -2.87 -2.18 -3.98 -3 -6 -4.06 -3.92 -3.48 -5.97 -12.26 -13.22 -6.43 -0.47 -2.77 -3.41 -0.9 -2.98 0.92 -4.16 24.84 -11.16 5.4 -3.7 1.11 -1.92" />
			<path d="M542.64 308.81 l4.95 -1.91 -0.07 -5.85 1.63 -1.7 19.54 -9.99 2.83 -2.25" />
			<path d="M602.62 120.87 l6.94 -2.06 2.31 -3.5" />
			<path d="M675.08 169.88 l11.23 1.11 8.37 -0.98 10.04 -1.71 10.31 -1.24 6.37 0.36 25.12 -36.47 12.31 -18.14 16.27 -22.24 1.9 -2.76 3.09 -2.9" />
			<path d="M778.08 226.67 l0.13 3.96 -1.36 11.38 -0.34 1.82 -0.54 2.91 0.5 6.08 -0.13 10.16 -0.31 5.64 -0.23 3.38 -1.54 7.1 -0.58 2.98 -2.29 11.83 -2.67 6.68 -1.9 10.83" />
			<path d="M687.88 249.29 l3.06 5 4.35 6.1 9.28 4.4 3.09 0.87 12.84 7.29 13.29 4.96 5.57 1.59" />
			<path d="M656.16 379.74 l-6.21 19.79 -4.39 17.26 -2.79 9.87" />
			<path d="M709.93 215.63 l-4.48 8.3 -4.06 5.62 -9.36 13.83 -4.15 5.91 -5.48 8.84 -2.53 3.22 0.22 4.38 -0.24 6.65 -0.99 4.3 -17.1 42.85 -8.34 20.07 -7.4 11.55" />
			<path d="M692.43 126.72 l2.25 43.28" />
			<path d="M639.61 233.57 l10.88 -11.67 15.04 -21.14 2.81 -3.08 3.31 -7.85 2.68 -10.54 0.75 -9.4 0.73 -19.21 -0.18 -21.98 0.1 -2.8 -0.95 -26.29 -0.36 -15.53 0.05 -2.46 3.06 -14.24 0.52 -4.88 -1.66 -1.91 -8.88 -2.09 -7.54 -0.93" />
			<path d="M645.92 200.15 l-4.76 -41 -1.65 -13.39 -2.05 -16.25 -0.85 -8.4 -0.91 -24.99" />
			<path d="M704.72 168.29 l-3.29 -41.59" />
			<path d="M593.37 373.98 l3.76 -1.22 5.37 -3.18 6.59 -2.02 7.6 0.73 7.45 1.34 19.81 6.04 12.21 4.07 27.62 6.3 8.31 0.75 5.77 -0.5 6.96 -3.28 17.1 -11.73 11.04 -9.25 6.1 -4.51" />
			<path d="M712.55 217 l2.68 -3.83 3.31 -5.91 11.67 3.23 15.37 4.89 12.38 2.21 9.3 0.71 3.03 -0.39 2.99 0.75 11.51 0.08 4.49 0.04 2.13 0.67 1.69 3.74 1.07 3.64" />
			<path d="M710.88 299.65 l-12.05 45.18 -6.37 1.85 -8.61 -3.93" />
			<path d="M745.58 215.38 l-2.95 12.3" />
			<path d="M628.26 203.75 l6.08 5.67 16.15 12.48 11.59 8.77" />
			<path d="M775.8 271.98 l6.18 1.18 21.35 3.18 8.19 2.23 7.8 1.62" />
			<path d="M679.03 358.61 l4.82 -15.87 2.48 -8.16 8.61 -28.31 2.96 -6.44 0.44 -2.29 1.38 -1.29 11.16 3.39 5.28 0.71 5.52 2.05 4.18 1.42 4.38 -0.72" />
			<path d="M776.34 262.97 l11.75 0.48 12.05 0.59 13.17 0.64 12.28 -0.76 12 -0.8 4.24 2.01 5.08 4.3" />
			<path d="M881.88 190.63 l2.16 -0.99 6.01 -0.32 3.44 0.83 11.28 3.24 2.33 -0.2 1.86 -1.23" />
			<path d="M601.52 262.76 l13.84 -3.84 h6.22 l7.48 -1.48 12.51 -3.4 6.79 -2.32" />
			<path d="M755.47 73.87 l-10.23 -1.85 -44.55 -4 -23.17 -0.65" />
			<path d="M668.34 197.67 l-2.22 -3.77 -4 -13.03 -2 -21.26 -1.58 -34.28" />
			<path d="M600.19 227.96 l33.93 -6.58" />
			<path d="M595.1 207.97 l33.23 -0.22" />
			<path d="M675.73 125.89 l16.71 0.83 3.92 -0.58 5.08 0.56 13.45 -2.87 5.31 -1.2 6.1 -1.97 3.71 -1.11 3.99 1.76 6.84 5.48 5.69 4.14" />
			<path d="M648.35 248.05 l13.74 -17.38 8.92 -11.52 5.13 -10.15 7.71 -5.06" />
			<path d="M535.55 182.61 l18.94 0.53 37.09 2.68 5.75 0.63 3.52 1.16 12.41 5.95 12.14 5.66" />
			<path d="M641.16 159.15 l18.97 0.46 3.85 0.09" />
			<path d="M494.09 192.31 l-8.47 17.53 -9.92 38.04 -1.92 11.4" />
			<path d="M929.56 256.84 l1.19 -6.95 0.18 -3.31 -0.65 -4.1 0.65 -12.09 -0.27 -4.36" />
			<path d="M625.78 122.47 l6.1 -1.33 4.73 -0.03 12.47 2.47 9.47 1.76 15.5 3.11 1.58 0.25" />
			<path d="M956.94 206.17 l-2.91 0.05 -4.32 0.4 -3.74 -1.37 -5.29 -4.9 0.04 -9.18 -0.04 -7.88 -0.25 -6.01" />
			<path d="M616.57 300.46 l7.4 -10.29 0.81 -2.96 5.55 -6.96 9.25 3.55 6.44 -8.21 -2.49 -12.22" />
			<path d="M592.96 311.36 l7.1 -8.02 8.81 -14.43 2.81 -4.88 3.7 -3.85 2.52 -7.4 0.12 -2.91" />
			<path d="M773.69 282.06 l14.21 2.96 5.85 0.81 9.03 1.33 7.25 1.85" />
		</symbol>
		<symbol id="20" style="fill:none">
			<path d="M375.58 234.3 l27.12 -18.18 15.65 -13 28.67 -15.98 12.06 -3.22 11.34 0.45 14.89 3.68 8.79 4.25 12.35 -1.05 13.32 -4.05 11.44 -2.3 4.35 -2.31" />
			<path d="M1322.82 322.07 l-6.62 13.02 -8.88 12.51 -4.84 7.67 -10.49 8.47 -2.82 14.32 -6.86 12.11 3.03 5.45 -11.5 19.77 -21.19 19.37 -43.18 36.72 -25.22 34.5 -5.35 7.98 -1.29 2.18" />
		</symbol>
		<symbol id="21" style="fill:none">
			<path d="M576.66 27.08 l-16.46 -67.06 -10.88 -44.33 -4.57 -10.8 -5.39 -8.81 -7.26 -8.02 -31.59 -14.49 -46.75 -21.45 -105.96 -49.03 -12.88 -8.93 -3.16 -4.95 -7.65 -10.7 -9.31 -17.1 -5.14 -6.95 -7.23 -7.37 -6.67 -4.17 -155 -74.1 -54.36 -25.3 -16.68 -12.79 -159.62 -126.72 -7.32 -4.27 -6.08 -1.56 -7.01 -0.17 -49.12 2.08 -16.68 1.22 -10.6 2.61 -12.86 2.08 -13.73 1.04 -13.55 -0.7 -19.64 -1.22 -31.97 1.74 -50.22 4.87 -89.54 19.79 -44.5 6.89 -49.33 12.49 -57.46 11.73 -7.59 -0.93 -4.27 -7.95 -19.29 -68.69 -2.09 -7.47 -1.74 -3.65 -4.17 -5.21 -29.89 -27.8 -20.16 -18.94 -23.98 -23.98 -28.85 -27.98 -3.65 -1.91 -7.47 -1.39 -11.16 -0.39" />
			<path d="M481.34 644.75 l10.27 -13.69 1.37 -5.93 -1.83 -8.22 -10.01 -21.17 -4.37 -11.69 -2.97 -10.73 0.46 -5.93 3.86 -0.78 6.42 -8.57 7.3 -10.04 17.89 -33.71 24.47 -41.18 22.54 -33.28 16.81 -24.53 4.5 -14.67 2.46 -8.87" />
			<path d="M595.84 96.53 l-18.81 8.47 -6.47 2.72 -2.85 2.93 -3.3 8.41 -9.49 30.1 -4.42 12.12 -11.35 15.86 -3.61 5.47 -4.75 5.92 -4.37 8.74 -1.57 6.91 -0.27 8.47 1.47 34.38 1.71 8.17 4.18 10.83 5.89 24.5 4.81 18.28 7.91 30.05 8.74 29.44 4.83 14.85 3.12 4.37 4.23 2.95 4.2 1.03 4.84 0.24 3.27 -5.65 6.1 -11.48 3.49 -0.63" />
			<path d="M1018.13 107.94 l50.29 37.24 37.1 25.74 18.52 9.24 13.18 5.26 14.64 5.81 8.84 4.47 13.96 14.43 31.08 35.62 9.31 9.51 18.48 15.94 24.07 18.38 43.79 21.39 21.43 11.1 100.57 52.07 25.07 15.38 40.86 30 23.54 16.34 76.82 83.36 50.75 54.08 12.67 13.59 2.46 4.65 2.04 7.78" />
			<path d="M749.03 227.47 l-0.72 10.92 -0.56 8.49 -1.28 16.17 -1.55 4.44 -1.43 2.96 -0.82 1.7 -3.3 7.33 -1.98 5.32 -7.13 18.3 -4.34 11.37 -0.99 8.97 2.19 8.1 9.57 20.71 2.4 5.26 1.68 3.94 12.95 33.99 4 10.35 1.42 7.65 1.1 16.95 2.21 28.38 4.96 27.82 5.04 31.29 9.93 41.3 2.21 10.48 0.16 8.83 -3.46 12.14 -10.49 27.77 -12.91 28.78 -7.55 21.05 -5.36 20.26 -14.51 48.63 -0.56 2.85 -7.54 26.92 -0.87 7.31 v22.2 l-0.08 45.05 0.98 13.66 2.03 10.84 7.27 25.82 18.98 59.62 3.52 11.12 2.47 11.14 1.39 10.33 1.59 28.4 3.57 39.12 4.78 34.12 5.55 28.83 7.35 44.11 3.9 20.83 1.65 11.66 1.8 17.14 0.82 5.9 0.69 5 0.45 28.79 -0.38 26.05 0.1 13.98 0.54 26.43 0.24 11.94 0.02 19.61 0.02 19.32 0.04 38.78 0.23 30.79 -0.38 61.63 -2.22 11.42 -12.69 31.73 -17.45 42.51 -5.39 19.99 -0.63 15.23 2.22 25.06 2.22 21.89 -0.63 14.59 -2.22 32.36 1.28 14.56 4.56 18.36 12.25 50.52 7.94 42.25 6.5 22.42 1.14 7.31 -0.49 8.28 -10.88 38.82 -34.11 122.81 -3.9 9.58 -6.5 10.4 -24.41 31.77" />
		</symbol>
		<symbol id="22" style="fill:none">
			<path d="M576.66 27.08 l19.18 69.45 6.78 24.34 12.63 43.34 10.15 35.01 1.14 2.94 1.71 1.59 9.02 -1.87 8.64 -1.73 8.81 -0.33 10.8 0.94 2.57 -1.77 1.86 -0.7 9.61 3.51 4.27 2.15 1.64 0.83 5.36 1.46 4.5 1.48 4.94 2.16 1.09 0.59 8.53 5.18 2.62 1.37 9.78 6.29 6.23 3.21 3.61 1.15 4 0.25 6.46 -0.22 6.4 -0.22 4.79 -0.13 24.27 -0.67 16.1 0.16 7.35 -0.15 29.73 -0.61 46.35 0.9 16.86 0.65 34.23 -2 1.95 0.41 7.94 2.09 2.37 0.07 2.1 -0.51 1.71 -1.48" />
			<path d="M946.34 224.44 l3.88 -5.12 4.75 -8.18 1.97 -4.97 -0.5 -17.09 -1.18 -14.34 0.9 -4.96 4.18 -6.32 6.39 -8.03 6.08 -6.28 5.39 -3.35 10.28 -3.46 5.23 -3.52 8.69 -14.1 9.97 -11.85 5.76 -4.93 57.15 -57.56 23.14 -27.38 8.3 -12.25 10.59 -13.08 30.73 -31.35 23.88 -18.06 46.51 -35.71 36.33 -27.41 19.1 -9.97 27.82 -8.72 82.22 -24.92 123.74 -36.31 69.29 -12.98 35.56 -5.71 13.75 -5.45 19.98 -10.9 64.62 -41.78 56.58 -36.33 14.09 -9.99 8.23 -5.06 6.19 -2.34 3.54 -1.74 13.11 -10.19 22.84 -22.84 5.45 -3.37 10.12 -2.08 23.88 0.52 89.16 0.41 95.04 1.58 58.27 1.07 14.03 -0.14 4.32 -0.68 3.84 -1.29 5.5 -1.76 4.03 -1.63 2.72 -1.54 6.02 -3.74 14.18 -8.6 30.42 -15.88 39.86 -22.93 32.76 -18.42 17.55 -6.89 34.02 -13.97 12.65 -3.18 9.34 -2.59 64.98 -17.23 63.8 -16.93 19.06 -5.26 5.02 -1.38 2.99 -1.24 2.18 -0.94 20.57 -12.09 8.48 -4.02 2.08 -0.94 7.52 -3.5 33.31 -14.33 37.68 -18.94 3.32 -2.14 16.99 -8 20.27 -10.69 4.54 -2.22 4.79 -2.22 3.38 -1.31 5.9 -1.97 5.65 -2.17 14.26 -6.76 37.3 -17.07 14.17 -6.63 3.38 -1.36 2.77 -1.01 3.22 -0.98 3.71 -0.76 21.7 -4.23 51.32 -8.3 55.77 -8.62 82.46 -11.81 3.54 -0.57 3.43 -0.63 2.72 -0.71 2.17 -0.86 2.33 -1.17 16.32 -9.72 6.1 -3.65 5.78 -3.1 3.03 -1.5 3.32 -1.46 3.24 -1.35 7.21 -2.64 24.71 -9.75 3.15 -0.69 4.88 -0.71 2.88 -0.28 19.8 -1.9 3.33 -0.39" />
		</symbol>
		<symbol id="23" style="fill:none">
			<path d="M2695.28 -1668.45 l-30.07 26.02 -195.47 167.48 -21.43 18.12 -9.67 8.5 -11.71 10.17 -65.3 55.23 -58.19 44.71 -35.33 24.59 -24.47 17.03 -149.95 97.38 -4.32 2.71 -29.67 19.21 -166 107.82 -84.75 55.1 -36.87 23.99 -51.38 35.19 -41.89 30.67 -70.79 52.25 -61.58 49.7 -12.53 10.11 -70 56.49 -188.93 150.92 -97.55 78.27 -71.4 57.56 -25.06 21.01 -17.86 15.29 -16.3 14.3 -23.69 20.9 -42.49 39.01 -37.69 35.48 -12.48 12.2 -156.74 153.37 -57.79 56.81 -58.93 58.53 -27.81 25.99 -16.42 13.9 -16.41 13.89 -19.73 15.64 -10.43 7.92 -13.11 9.67 -25.14 17.45 -12.91 8.6 -23.63 15.03 -11.44 6.83 -22.43 12.68 -32.98 18.28 -71.75 39.65 -55.46 31.08 -65.5 36.66 -77.18 43.16 -25.4 14.47 -34.53 20.11 -22.6 13.51 -17.27 10.54 -22.55 13.82 -29.82 19.02 -52.28 33.81 -15.68 10.64 -84.05 56.31 -104.8 70.88 -123.49 82.27 -44.51 29.26 -199.66 132.77 -76.11 50.7 -76.86 51.13 -22.33 14.06 -15.09 9.33 -44.14 25.92 -16.57 9.28 -15.57 8.3 -28.84 14.97 -9.57 4.85 -12.96 6.29 -161.92 75.77 -100.01 47.31" />
		</symbol>
		<symbol id="24" style="fill:none">
			<path d="M712.56 194.24 l2.29 -4.45" />
			<path d="M697.05 216.4 l4.35 -5.94 2.56 -4.08 2.38 -3.61 -3.7 3.87" />
			<path d="M864.67 -15.68 l8.81 -11.25 6.92 -7.22 10.91 -8.87 15.36 -11.27 22.53 -16.46 19.3 -13.43 30.08 -21.75 19.8 -14.96 18.53 -13.33 15.43 -11.55 15.24 -10.77 23.46 -16.91 15.39 -10.88 5.12 -3.47" />
			<path d="M1090.95 -188.62 l-5.15 3.72 -15.06 10.79 -23.42 17.04 -15.5 10.82 -15.26 11.42 -18.58 13.28 -20.07 14.86 -29.93 21.55 -19.62 13.81 -22.14 16.4 -15.66 11.28 -11.14 8.53 -6.69 7.71 -8.69 11.21" />
			<path d="M863.07 -14.91 l-15.35 21.15 -71.47 98.87 -31.24 42.41 -30.15 42.28 -12.21 16.84 -2.34 3.23 -34.71 48.62 35.19 -48.44 5.56 -7.28 6.22 -8.52 33.34 -46.05 31 -42.64 71.64 -98.93 15.18 -21.01" />
			<path d="M665.59 258.48 l-66.68 93.06 -27.44 38.93 -26.34 34.88 -38.89 55.25 -27.92 58.29 -7.08 20.54 -14.28 24.59 -17.66 38 -10.19 17.62 -14.27 17.98 -100.58 62.66 -60.41 24.08 -16.79 5.75 -17.55 4.52 -21.61 0.94 -23.07 0.52 -22.56 7.8 -22.74 13.17 -105.46 61.72 -83.3 40.96 -128.78 59.31 -93.42 71.67 -31.32 24.97 -15.82 19.06 -11.28 17.13 -58.97 145.27 -9.99 32.1 -5.3 20.34 -38.43 147.6 -10.39 42.4 -5.62 18.7 -17.69 40.04 -6.84 25.26 -9.34 78.74 -2.03 10.3 -6.53 19.59 -13.78 23.05 -21.89 16.05 -50.66 18.94 -28.45 12.26 -21.37 1.51 -36.48 -0.85 -29.66 2.63 -34.21 20.93 -26.08 25.87 -18.91 32.02 -15.52 34.08 -13.94 13.67 -35 27.76 -26.74 25.69 -64.53 81.07 -13.34 23.53 -11.1 34.42 -35.85 109.76 -9.35 15.84 -19.08 24.25 -68.66 57.09 -95.95 117.06 -14.33 20.78 -12.91 24.85 -7.36 31.82 -4.53 24.94 -16.82 100.38 -18.63 102.23 -7.77 26.04 -22.04 33.39 -232.51 312.53 -297.84 409.33 -111.49 153.11 -24.33 32.51 -28.11 38.11 -106.92 151.64 -166.48 188.64 -242.22 281.59 -236.17 269.27 -38.7 40.38 -196.62 168.7 -16.19 7.92" />
		</symbol>
		<symbol id="27" style="fill:none">
			<path d="M665.59 258.48 l-66.68 93.06 -27.44 38.93 -26.34 34.88 -38.89 55.25 -27.92 58.29 -7.08 20.54 -14.28 24.59 -17.66 38 -10.19 17.62 -14.27 17.98 -100.58 62.66 -60.41 24.08 -16.79 5.75 -17.55 4.52 -21.61 0.94 -23.07 0.52 -22.56 7.8 -22.74 13.17 -105.46 61.72 -83.3 40.96 -128.78 59.31 -93.42 71.67 -31.32 24.97 -15.82 19.06 -11.28 17.13 -58.97 145.27 -9.99 32.1 -5.3 20.34 -38.43 147.6 -10.39 42.4 -5.62 18.7 -17.69 40.04 -6.84 25.26 -9.34 78.74 -2.03 10.3 -6.53 19.59 -13.78 23.05 -21.89 16.05 -50.66 18.94 -28.45 12.26 -21.37 1.51 -36.48 -0.85 -29.66 2.63 -34.21 20.93 -26.08 25.87 -18.91 32.02 -15.52 34.08 -13.94 13.67 -35 27.76 -26.74 25.69 -64.53 81.07 -13.34 23.53 -11.1 34.42 -35.85 109.76 -9.35 15.84 -19.08 24.25 -68.66 57.09 -95.95 117.06 -14.33 20.78 -12.91 24.85 -7.36 31.82 -4.53 24.94 -16.82 100.38 -18.63 102.23 -7.77 26.04 -22.04 33.39 -232.51 312.53 -297.84 409.33 -111.49 153.11 -24.33 32.51 -28.11 38.11 -106.92 151.64 -166.48 188.64 -242.22 281.59 -236.17 269.27 -38.7 40.38 -196.62 168.7 -16.19 7.92" />
		</symbol>
		<symbol id="34" style="fill:none">
			<path d="M1007.38 428.3 l-2.22 5.14 -2.67 8.84 -0.43 3.03 -5.67 4.49 -0.5 5.42 -4.21 1.07 2.53 4.39 -1.89 6.67 3.6 3.32 2.89 -3.28 2.03 3.07 -0.75 3.99 3.6 0.07 7.53 4.32 5.39 -0.71 3.35 2.07 5.32 -0.41 3.28 2.5 4.99 -0.85 2.71 5.21 5.99 -0.36 5.49 2.57 10.91 0.43 12.48 2.71 3.5 1.71 8.77 -0.64 6.21 5.56 4.78 1.43 10.91 -0.64 7.42 -1.85 2.71 -4.71 7.35 3.21 4.14 0.28 2.43 1.86 0.36 5.35 10.91 -0.36 0.71 3.07 4.85 -0.28 2.71 -3.71 7.06 -0.64 6.28 5.35 8.35 5.28 1.85 5.49 6.56 1.5 4 1.71 16.41 5.56 6.13 0.29 4.14 2.5 4.57 -0.86 3.07 -3.14 9.42 -0.64 7.49 3.71 0.36 3.28 8.13 0.64 9.27 -2.78 4 2 1.28 4.85 8.56 -2.64 9.49 1.78 6.06 -0.21 5.71 4.28 6.99 -4.92 7.78 2.35 9.06 5.21 2.43 1.93 -0.64 5.85 9.35 2.57 3.42 2 2.35 9.84 5.21 2.71 4 4.78 6.63 -1.28 8.63 -5.49 8.27 -1.28 7.85 4.78 5.56 0.71 4.57 10.06 3.78 5.06 11.48 -1.43 1.57 2.35 -1.35 6.63 2.35 1.35 6.7 -5.42 1.21 5.99 3.5 3.78 4.35 1.85 1.78 2.28 3.99 -2.07 7.92 6.06 6.06 3.57 4.64 6.06 6.21 1.64 7.13 -2.35 4.92 5.28 1.5 5.64 8.7 3.35 4.64 -0.21 4 1.64 3 0.21 4.35 3.14 7.92 1 3.42 -2.5 7.13 -12.7 4.21 -0.07 6.92 0.5 4.21 -2.14 1.28 -7.56 2.64 -3.28 4.42 -1.78 20.4 2 4.21 -2.71 1.57 -5.42 4.28 -2.28 7.49 0.28 4.21 4.99 7.7 -0.43 4.71 2.93 4.21 1.14 6.25 2.25 6.75 -0.21 5.4 3.01 2.6 4.88 1.85 2.69 2.11 1.95 0.85 1.43 1.5 0.81" />
			<path d="M809.97 360.68 l12.05 2.49 9.56 -1.97 8.21 6.13 17.24 8.52 5.09 2.18 4.36 5.92 9.77 3.01 7.48 1.04 14.13 8.31 13.4 1.45 14.03 0.31 4.11 -3.02" />
			<path d="M816.11 191.5 l3.51 0.59 6.53 0.83 16.98 0.71 6.53 1.58 12.03 2.18 4.95 -0.16 5.54 0.87 h11.44" />
			<path d="M946.74 226.53 l1.07 1.46 -1.03 3.13 -2.93 2.34 1.5 4.55 -0.95 3.64 2.43 1.83 1.61 4.73 0.21 7.38 -2.86 9.35 1.92 4.52 -0.1 4.36 -0.62 4.62 -3.79 6.39 -1.35 5.76 3.79 3.95 -0.05 6.13 -0.78 4.57 1.59 3.86" />
			<path d="M885.91 197.53 l7.26 -1.05 7.4 3.52 7.13 3.92 7.8 1.98 7.61 4.44 7.94 -1.77 4.72 4.73 4.43 1.42 2.22 4.27 0.59 4.24 1.25 1.33" />
		</symbol>
		<symbol id="35" style="fill:none">
			<path d="M878.81 286.42 l-14.77 -1.39 4.5 -44.92 4.35 -7.1 3.47 -3.93 8.49 0.26" />
			<path d="M718.66 268.3 l3.47 2.25 4.45 -7.83 1.12 -1.64 -1.44 -2.2 4.16 -12.14 -7.12 -2.85 -2.96 -2.72 -4.4 -0.97 -2.38 -1.12 -5.47 8.9 -2.41 -1.65 -4.21 7.12" />
		</symbol>
		<symbol id="36" style="fill:none">
			<path d="M712.56 194.24 l2.29 -4.45" />
			<path d="M697.05 216.4 l4.35 -5.94 2.56 -4.08 2.38 -3.61 -3.7 3.87" />
			<path d="M864.67 -15.68 l8.81 -11.25 6.92 -7.22 10.91 -8.87 15.36 -11.27 22.53 -16.46 19.3 -13.43 30.08 -21.75 19.8 -14.96 18.53 -13.33 15.43 -11.55 15.24 -10.77 23.46 -16.91 15.39 -10.88 5.12 -3.47" />
			<path d="M1090.95 -188.62 l-5.15 3.72 -15.06 10.79 -23.42 17.04 -15.5 10.82 -15.26 11.42 -18.58 13.28 -20.07 14.86 -29.93 21.55 -19.62 13.81 -22.14 16.4 -15.66 11.28 -11.14 8.53 -6.69 7.71 -8.69 11.21" />
			<path d="M863.07 -14.91 l-15.35 21.15 -71.47 98.87 -31.24 42.41 -30.15 42.28 -12.21 16.84 -2.34 3.23 -34.71 48.62 35.19 -48.44 5.56 -7.28 6.22 -8.52 33.34 -46.05 31 -42.64 71.64 -98.93 15.18 -21.01" />
			<path d="M665.59 258.48 l-66.68 93.06 -27.44 38.93 -26.34 34.88 -38.89 55.25 -27.92 58.29 -7.08 20.54 -14.28 24.59 -17.66 38 -10.19 17.62 -14.27 17.98 -100.58 62.66 -60.41 24.08 -16.79 5.75 -17.55 4.52 -21.61 0.94 -23.07 0.52 -22.56 7.8 -22.74 13.17 -105.46 61.72 -83.3 40.96 -128.78 59.31 -93.42 71.67 -31.32 24.97 -15.82 19.06 -11.28 17.13 -58.97 145.27 -9.99 32.1 -5.3 20.34 -38.43 147.6 -10.39 42.4 -5.62 18.7 -17.69 40.04 -6.84 25.26 -9.34 78.74 -2.03 10.3 -6.53 19.59 -13.78 23.05 -21.89 16.05 -50.66 18.94 -28.45 12.26 -21.37 1.51 -36.48 -0.85 -29.66 2.63 -34.21 20.93 -26.08 25.87 -18.91 32.02 -15.52 34.08 -13.94 13.67 -35 27.76 -26.74 25.69 -64.53 81.07 -13.34 23.53 -11.1 34.42 -35.85 109.76 -9.35 15.84 -19.08 24.25 -68.66 57.09 -95.95 117.06 -14.33 20.78 -12.91 24.85 -7.36 31.82 -4.53 24.94 -16.82 100.38 -18.63 102.23 -7.77 26.04 -22.04 33.39 -232.51 312.53 -297.84 409.33 -111.49 153.11 -24.33 32.51 -28.11 38.11 -106.92 151.64 -166.48 188.64 -242.22 281.59 -236.17 269.27 -38.7 40.38 -196.62 168.7 -16.19 7.92" />
		</symbol>
		<symbol id="38" style="fill:none">
			<path d="M2621.41 206.6 l-62.61 -40 -52.97 -13.07 -72.23 35.08 -53.66 -16.51 -22.01 -42.65 -42.6 10.72 -32.69 38.37 -43.03 19.01 -33.02 -24.08 -83.93 -12.38 -52.97 29.58 -77.74 -70.17 128.64 -231.83 12.38 -167.85 -42.55 -71.55 -54.48 -64.21 -74.91 -47.67 -407.15 -3.89 -334.18 192.63 -319.1 241.27 -102.09 118.91" />
			<path d="M-80.26 927.48 l280.75 -141.95 133.77 -33.16 114.58 -104.1 126.45 -221.29" />
			<path d="M482.75 98.41 l-181.8 15.4 -60.32 -55.45 -17.51 -73.94 11.67 -367.75 -22.38 -176.09" />
		</symbol>
		<symbol id="44" style="fill:none">
			<path d="M944.77 226.19 l1.57 -1.75" />
		</symbol>
		<symbol id="45" style="fill:none">
			<path d="M864.67 -15.68 l-0.96 1.3" />
			<path d="M864.02 -16.21 l-0.96 1.3" />
		</symbol>
		<symbol id="46" style="fill:none">
			<path d="M864.67 -15.68 l-0.96 1.3" />
			<path d="M864.02 -16.21 l-0.96 1.3" />
		</symbol>
		<image id="symbol_tile_1" width="216" height="216" xlink:href="5229.7.png" />
		<image id="symbol_tile_2" width="215" height="216" xlink:href="5229.8.png" />
		<image id="symbol_tile_3" width="216" height="216" xlink:href="5229.9.png" />
		<image id="symbol_tile_4" width="216" height="216" xlink:href="5229.10.png" />
		<image id="symbol_tile_5" width="216" height="216" xlink:href="5229.11.png" />
		<image id="symbol_tile_6" width="215" height="216" xlink:href="5229.12.png" />
		<image id="symbol_tile_7" width="216" height="216" xlink:href="5229.13.png" />
		<image id="symbol_tile_8" width="216" height="215" xlink:href="5230.7.png" />
		<image id="symbol_tile_9" width="215" height="215" xlink:href="5230.8.png" />
		<image id="symbol_tile_10" width="216" height="215" xlink:href="5230.9.png" />
		<image id="symbol_tile_11" width="216" height="215" xlink:href="5230.10.png" />
		<image id="symbol_tile_12" width="216" height="215" xlink:href="5230.11.png" />
		<image id="symbol_tile_13" width="215" height="215" xlink:href="5230.12.png" />
		<image id="symbol_tile_14" width="216" height="215" xlink:href="5230.13.png" />
		<image id="symbol_tile_15" width="216" height="216" xlink:href="5231.7.png" />
		<image id="symbol_tile_16" width="215" height="216" xlink:href="5231.8.png" />
		<image id="symbol_tile_17" width="216" height="216" xlink:href="5231.9.png" />
		<image id="symbol_tile_18" width="216" height="216" xlink:href="5231.10.png" />
		<image id="symbol_tile_19" width="216" height="216" xlink:href="5231.11.png" />
		<image id="symbol_tile_20" width="215" height="216" xlink:href="5231.12.png" />
		<image id="symbol_tile_21" width="216" height="216" xlink:href="5231.13.png" />
		<symbol id="symbol_shape_22" style="fill:#7981B0;stroke-linejoin:round;stroke:#7981B0;stroke-width:3">
			<rect x="-2.94" y="-2.94" width="5.88" height="5.88" />
		</symbol>
		<symbol id="symbol_shape_23" style="fill:#7981B0;stroke-linejoin:round;stroke:#7981B0;stroke-width:3">
			<rect x="-2.94" y="-2.94" width="5.88" height="5.88" />
		</symbol>
		<symbol id="symbol_text_24">
			<text transform="translate(708.87,214.99) rotate(31) scale(0.9,1)" y="2.84">у</text>
			<text transform="translate(712.46,216.96) rotate(28) scale(0.9,1)" y="2.84">л</text>
			<text transform="translate(716.23,219.37) rotate(33) scale(0.9,1)" y="2.84">иц</text>
			<text transform="translate(723.99,224.15) rotate(27) scale(0.9,1)" y="2.84">а </text>
			<text transform="translate(730.09,226.99) rotate(18) scale(0.9,1)" y="2.84">Т</text>
			<text transform="translate(734.28,227.79) rotate(4) scale(0.9,1)" y="2.84">р</text>
			<text transform="translate(738.68,227.82) rotate(358) scale(0.9,1)" y="2.84">убникова</text>
			<text transform="translate(708.87,214.99) rotate(31) scale(0.9,1)" y="2.84">у</text>
			<text transform="translate(712.46,216.96) rotate(28) scale(0.9,1)" y="2.84">л</text>
			<text transform="translate(716.23,219.37) rotate(33) scale(0.9,1)" y="2.84">иц</text>
			<text transform="translate(723.99,224.15) rotate(27) scale(0.9,1)" y="2.84">а </text>
			<text transform="translate(730.09,226.99) rotate(18) scale(0.9,1)" y="2.84">Т</text>
			<text transform="translate(734.28,227.79) rotate(4) scale(0.9,1)" y="2.84">р</text>
			<text transform="translate(738.68,227.82) rotate(358) scale(0.9,1)" y="2.84">убникова</text>
		</symbol>
		<symbol id="symbol_text_25">
			<text transform="translate(600.93,114.79) rotate(434) scale(0.9,1)" y="2.84">Центральная улица</text>
			<text transform="translate(600.93,114.79) rotate(434) scale(0.9,1)" y="2.84">Центральная улица</text>
		</symbol>
		<symbol id="symbol_text_26">
			<text transform="translate(735.76,246.04) scale(0.9,1)">Бабынино</text>
			<text transform="translate(735.76,246.04) scale(0.9,1)">Бабынино</text>
		</symbol>
		<symbol id="symbol_text_27">
			<text transform="translate(9.5,619.34) scale(0.85,1)">54°22'</text>
			<text transform="translate(9.5,619.34) scale(0.85,1)">54°22'</text>
		</symbol>
		<symbol id="symbol_text_28">
			<text transform="translate(9.5,338.4) scale(0.85,1)">54°23'</text>
			<text transform="translate(9.5,338.4) scale(0.85,1)">54°23'</text>
		</symbol>
		<symbol id="symbol_text_29">
			<text transform="translate(9.5,57.35) scale(0.85,1)">54°24'</text>
			<text transform="translate(9.5,57.35) scale(0.85,1)">54°24'</text>
		</symbol>
		<symbol id="symbol_text_30">
			<text transform="translate(-61.63,21.5) scale(0.85,1)">35°40'</text>
			<text transform="translate(-61.63,21.5) scale(0.85,1)">35°40'</text>
		</symbol>
		<symbol id="symbol_text_31">
			<text transform="translate(102.01,21.5) scale(0.85,1)">35°41'</text>
			<text transform="translate(102.01,21.5) scale(0.85,1)">35°41'</text>
		</symbol>
		<symbol id="symbol_text_32">
			<text transform="translate(265.65,21.5) scale(0.85,1)">35°42'</text>
			<text transform="translate(265.65,21.5) scale(0.85,1)">35°42'</text>
		</symbol>
		<symbol id="symbol_text_33">
			<text transform="translate(429.29,21.5) scale(0.85,1)">35°43'</text>
			<text transform="translate(429.29,21.5) scale(0.85,1)">35°43'</text>
		</symbol>
		<symbol id="symbol_text_34">
			<text transform="translate(592.93,21.5) scale(0.85,1)">35°44'</text>
			<text transform="translate(592.93,21.5) scale(0.85,1)">35°44'</text>
		</symbol>
		<symbol id="symbol_text_35">
			<text transform="translate(756.57,21.5) scale(0.85,1)">35°45'</text>
			<text transform="translate(756.57,21.5) scale(0.85,1)">35°45'</text>
		</symbol>
		<symbol id="symbol_text_36">
			<text transform="translate(920.21,21.5) scale(0.85,1)">35°46'</text>
			<text transform="translate(920.21,21.5) scale(0.85,1)">35°46'</text>
		</symbol>
		<symbol id="symbol_text_37">
			<text transform="translate(1083.84,21.5) scale(0.85,1)">35°47'</text>
			<text transform="translate(1083.84,21.5) scale(0.85,1)">35°47'</text>
		</symbol>
		<symbol id="symbol_text_38">
			<text transform="translate(1247.48,21.5) scale(0.85,1)">35°48'</text>
			<text transform="translate(1247.48,21.5) scale(0.85,1)">35°48'</text>
		</symbol>
		<symbol id="symbol_text_39">
			<text transform="translate(54.93,446.52) scale(0.85,1)">1 : 25 962</text>
			<text transform="translate(54.93,446.52) scale(0.85,1)">1 : 25 962</text>
		</symbol>
		<symbol id="symbol_text_40">
			<text transform="translate(68.79,421.52) scale(0.85,1)">1 km</text>
			<text transform="translate(68.79,421.52) scale(0.85,1)">1 km</text>
		</symbol>
		<symbol id="symbol_text_41">
			<text transform="translate(1067.21,413.3) scale(0.8,1)">© OpenStreetMap contributors. Tiles: CC-BY-SA 2.0</text>
			<text transform="translate(1174.82,430.2) scale(0.8,1)">OpenStreetMap and contributors</text>
			<text transform="translate(1128.34,447.1) scale(0.8,1)">Map data © OpenStreetMap contributors</text>
			<text transform="translate(1067.21,413.3) scale(0.8,1)">© OpenStreetMap contributors. Tiles: CC-BY-SA 2.0</text>
			<text transform="translate(1174.82,430.2) scale(0.8,1)">OpenStreetMap and contributors</text>
			<text transform="translate(1128.34,447.1) scale(0.8,1)">Map data © OpenStreetMap contributors</text>
		</symbol>
	</defs>
	<g id="Map_background" style="fill:#F1EEE8;stroke:#000000" inkscape:groupmode="layer" inkscape:label="Map background">
		<g id="map_background" inkscape:groupmode="layer" inkscape:label="map background">
			<rect x="0" y="0" width="1366" height="455" id="Map_Background_Fill" style="stroke:none" />
		</g>
	</g>
	<g id="Bitmap__in_background" style="stroke:#000000" inkscape:groupmode="layer" inkscape:label="Bitmap (in background)">
		<g id="tiles" inkscape:groupmode="layer" inkscape:label="tiles">
			<use x="-94" y="-51" width="216" height="216" xlink:href="#symbol_tile_1" />
			<use x="122" y="-51" width="215" height="216" xlink:href="#symbol_tile_2" />
			<use x="337" y="-51" width="216" height="216" xlink:href="#symbol_tile_3" />
			<use x="553" y="-51" width="216" height="216" xlink:href="#symbol_tile_4" />
			<use x="769" y="-51" width="216" height="216" xlink:href="#symbol_tile_5" />
			<use x="985" y="-51" width="215" height="216" xlink:href="#symbol_tile_6" />
			<use x="1200" y="-51" width="216" height="216" xlink:href="#symbol_tile_7" />
			<use x="-94" y="165" width="216" height="215" xlink:href="#symbol_tile_8" />
			<use x="122" y="165" width="215" height="215" xlink:href="#symbol_tile_9" />
			<use x="337" y="165" width="216" height="215" xlink:href="#symbol_tile_10" />
			<use x="553" y="165" width="216" height="215" xlink:href="#symbol_tile_11" />
			<use x="769" y="165" width="216" height="215" xlink:href="#symbol_tile_12" />
			<use x="985" y="165" width="215" height="215" xlink:href="#symbol_tile_13" />
			<use x="1200" y="165" width="216" height="215" xlink:href="#symbol_tile_14" />
			<use x="-94" y="380" width="216" height="216" xlink:href="#symbol_tile_15" />
			<use x="122" y="380" width="215" height="216" xlink:href="#symbol_tile_16" />
			<use x="337" y="380" width="216" height="216" xlink:href="#symbol_tile_17" />
			<use x="553" y="380" width="216" height="216" xlink:href="#symbol_tile_18" />
			<use x="769" y="380" width="216" height="216" xlink:href="#symbol_tile_19" />
			<use x="985" y="380" width="215" height="216" xlink:href="#symbol_tile_20" />
			<use x="1200" y="380" width="216" height="216" xlink:href="#symbol_tile_21" />
		</g>
	</g>
	<g id="Polygons" style="stroke-linejoin:round;stroke:#000000" inkscape:groupmode="layer" inkscape:label="Polygons">
		<g id="residential_area__fill" style="fill:#DCDCDC" inkscape:groupmode="layer" inkscape:label="residential area (fill)">
			<path style="stroke:none" d="M252.45 550.74 l38.8 -58.48 45.91 7.65 16.4 -24.05 -36.62 -16.94 6.01 -32.79 -33.34 -17.49 -34.43 57.39 -20.77 4.92 -26.23 49.19 8.75 20.77 35.53 9.84 Z" />
		</g>
		<g id="landuse_industrial__fill" style="fill:#DFD1D6" inkscape:groupmode="layer" inkscape:label="landuse industrial (fill)">
			<path style="stroke:none" d="M563.63 190.87 l-0.83 20.35 15.22 0.62 0.83 -20.35 -15.22 -0.62 Z" />
		</g>
		<g id="leisure_garden__fill" style="fill:#CFECA8" inkscape:groupmode="layer" inkscape:label="leisure garden (fill)">
			<path style="stroke:none" d="M1169.1 306.37 l29.56 -63.38 11.76 11.08 35.27 29 0.34 4.7 -15.23 30.45 -16.57 -8.17 -7.39 6.38 -11.76 -6.72 -11.31 5.6 -14.67 -8.96 Z" />
		</g>
		<g id="graveyard__fill" style="fill:#A9CAAE" inkscape:groupmode="layer" inkscape:label="graveyard (fill)">
			<path style="stroke:none" d="M958.8 238.59 l15.76 -2.61 17.89 -2.9 5.69 -1.34 1.17 2.01 v6.52 l-0.84 12.43 -39.57 3.9 -0.1 -18.01 Z" />
		</g>
		<g id="forest__fill" style="fill:#8DC56C" inkscape:groupmode="layer" inkscape:label="forest (fill)">
			<path style="stroke:none" d="M234.07 222.45 l132.25 -71.89 12.55 -27.81 v-14.92 l9.49 -9.16 -4.75 -21.36 -33.23 -7.12 -25.43 -8.14 -3.39 8.82 -30.18 26.11 -3.39 18.65 -17.97 -0.34 9.49 14.92 -10.17 7.46 -7.12 6.78 -4.07 13.9 -0.34 11.87 -15.26 7.8 -8.48 16.96 -1.36 13.22 1.36 14.24 Z" />
			<path style="stroke:none" d="M323.28 56.8 l60.03 12.21 4.54 -9.07 10.82 -13.26 -4.19 -22.69 10.82 -15.71 16.4 1.39 6.28 -28.62 -13.61 -14.31 -0.35 -5.58 h5.93 l2.09 -16.75 -9.07 -22.34 -6.98 -29.32 -7.33 -15.71 -13.61 -18.15 -10.82 -4.19 -10.12 -3.84 -8.03 4.89 -3.49 -4.19 4.19 -8.03 -11.52 -5.58 -18.85 9.07 21.99 -21.99 -8.03 -19.89 -6.28 -1.4 -9.42 -4.89 -13.61 10.12 -6.63 1.4 -3.14 8.72 1.4 7.33 -15.01 8.03 -3.84 -12.56 -23.03 1.05 -15.71 4.54 -3.49 4.54 -5.93 -1.4 4.89 33.5 -6.98 6.63 -8.73 11.17 -1.74 -8.03 -18.15 -10.47 0.35 12.91 -2.44 5.93 2.09 5.58 11.87 4.19 -2.44 12.91 -9.42 -3.14 -1.05 -6.63 -5.24 1.74 -6.63 9.07 10.47 4.19 9.07 21.29 7.33 -6.63 3.49 -20.94 5.58 27.57 12.56 22.34 7.68 20.59 0.7 8.73 13.26 22.34 23.38 6.28 2.79 5.58 -12.91 5.24 5.24 8.38 3.84 16.4 13.96 -5.58 20.24 4.89 4.54 10.12 Z" />
			<path style="stroke:none" d="M238.06 66.25 l-11.51 4.41 -4.22 4.79 -8.63 3.07 h-4.79 l-19.37 -71.15 -2.88 0.38 1.92 7.48 -16.49 16.3 1.73 2.69 16.11 -12.27 14.77 60.6 -3.07 4.6 -3.26 3.07 2.3 6.33 6.14 1.34 12.66 35.67 -15.15 16.49 -5.56 1.92 -4.79 -2.3 -6.52 -9.97 -4.22 4.41 8.63 15.34 14.96 1.92 6.71 -12.66 6.14 -1.53 5.56 7.67 -1.73 10.55 -3.84 8.05 -4.03 2.88 0.19 4.41 3.84 5.95 6.14 -1.92 -5.37 -6.9 5.75 -8.82 2.11 -11.12 3.64 -1.73 4.6 3.45 3.07 6.71 5.75 2.11 4.6 2.88 5.18 -4.79 -1.92 -7.67 -5.37 -1.15 -0.96 -4.98 2.3 -5.37 -24.93 -14.19 -3.45 -7.1 -7.29 -31.26 6.9 -10.16 13.23 2.68 15.34 -7.29 -4.99 -10.17 -5.95 -3.64 Z" />
			<path style="stroke:none" d="M736.34 187.44 l35.27 -48.94 -0.48 -2.76 12.24 -19.91 11.16 -14.99 -15.83 16.19 -9.24 16.43 -4.56 1.44 -3.24 -1.32 -37.07 50.14 4.44 5.52 4.92 0.72 2.4 -2.52 Z" />
			<path style="stroke:none" d="M533.02 453.26 l-4.71 0.94 -20.24 31.3 -7.77 24.24 -6.59 3.53 -14.33 30.58 0.67 14.31 2.33 -0.83 24.13 -42.93 22.47 -42.6 33.1 -48.59 9.18 -15.3 -4.71 3.06 -1.47 -4.53 -15.47 18.59 -2.35 3.94 3.88 3.65 -16.3 21.56 -1.82 -0.92 Z" />
			<path style="stroke:none" d="M364.84 219 l-9.28 -13.06 -0.69 -9.97 3.61 -10.83 3.44 -20.8 -2.92 -2.58 -95.91 54.66 6.02 5.16 27.67 8.59 8.08 -1.03 12.38 14.09 13.41 3.09 5.84 3.44 12.89 -3.61 -10.14 11 6.02 3.44 5.84 -4.47 5.84 -6.19 7.22 2.41 6.88 6.53 10.14 -6.53 -14.95 -10.66 -0.69 -7.91 4.64 -6.02 -5.67 -3.44 0.34 -5.33 Z" />
			<path style="stroke:none" d="M1206.65 -314.38 l-3.9 -6.28 -7.63 3.73 -7.63 9.33 -5.6 12.38 -1.87 5.94 -10.18 4.92 -18.15 13.91 -10.86 6.28 -4.75 -2.04 -7.63 6.96 -15.78 1.19 -57.68 51.4 -56.15 53.78 -35.35 26.83 -94.28 68.13 -40.31 49.9 -32.87 46.06 -27.35 35.03 3.84 6.24 9.12 5.04 0.97 -1.26 44.62 -58.23 -5.52 -6.72 36.23 -45.34 2.64 1.92 18.71 -17.03 28.07 -20.39 -3.36 -6.24 52.54 -37.67 27.35 -17.51 5.76 1.92 62.14 -44.14 69.09 -52.06 73.41 -60.94 31.19 -29.51 -10.8 -8.64 -8.03 3.12 Z" />
			<path style="stroke:none" d="M288.32 723.72 l31.12 -13.13 88 -57.13 17.02 -19.45 28.44 -64.66 10.94 -29.66 6.56 1.46 18.48 -37.44 23.09 -41.08 10.7 -15.31 -5.11 -4.38 10.45 -14.58 6.08 1.46 18.47 -23.82 -3.16 -7.78 9.24 -15.07 -4.62 -3.4 -16.77 23.09 -16.29 24.07 -18.96 24.79 -14.59 25.52 -11.91 24.31 -9.72 -7.53 -10.7 -5.11 -6.32 3.16 -7.29 36.22 10.7 20.66 -2.43 13.61 -17.02 33.3 -11.43 16.04 6.08 3.65 -15.07 19.2 -7.78 13.13 -22.85 11.18 -17.26 13.86 -18.96 10.45 -26.74 17.75 -61.99 24.8 10.7 0.73 7.78 3.4 3.65 -5.35 9.48 -0.97 Z" />
			<path style="stroke:none" d="M918.26 399.63 l-19.94 -1.2 -13.75 -7.05 -20.63 -6.19 -40.91 23.89 3.78 12.55 10.31 16.85 10.14 11.17 -0.86 6.88 -11 9.63 -10.14 0.69 -2.23 10.49 5.84 8.94 5.84 6.36 7.73 -2.23 1.72 -8.59 -4.47 -12.72 54.66 -21.14 -7.05 14.61 -1.55 14.44 -20.11 -1.55 -15.64 7.74 -0.52 8.08 -6.02 5.84 2.75 3.09 17.36 1.38 0.86 6.19 -6.02 3.44 -7.91 -2.41 -2.23 9.45 4.98 1.2 4.81 -3.09 -0.52 13.92 8.59 -0.69 14.95 -33 24.58 -15.36 18.72 -30.63 21.63 -2.43 42.78 -33.3 -6.81 -10.69 -10.94 -6.08 -20.66 -0.73 -16.29 2.67 -6.56 12.15 -10.21 15.56 5.35 -15.56 1.7 -8.02 -6.17 -4.52 Z" />
			<path style="stroke:none" d="M586.6 491.54 l-10.94 -11.42 -7.54 -7.78 -4.13 5.83 7.54 6.56 3.65 13.37 8.27 -1.46 3.16 -5.11 Z" />
			<path style="stroke:none" d="M886.82 201.45 l-3.6 -8.9 0.2 -1.66 1.74 -0.39 0.79 2.45 1.74 1.03 1.31 -0.75 1.54 1.46 4.15 0.24 2.49 2.22 1.66 0.36 1.5 -1.27 3.64 4.43 2.41 -0.32 6.13 3.44 0.95 2.77 -1.19 1.38 -6.69 -1.03 -0.51 -2.65 -4.59 -2.3 -6.41 1.23 -4.31 -0.36 -2.97 -1.38 Z" />
			<path style="stroke:none" d="M708.69 212.46 l3.19 1.54 7.81 -12.32 5.39 -1.21 17.39 1.21 3.41 2.42 0.55 -2.42 -5.72 -4.62 -14.52 -2.09 -8.25 0.44 -3.96 4.73 -5.28 12.32 Z" />
			<path style="stroke:none" d="M714.23 183.57 l3.03 -1.43 37.19 -50.67 0.16 -4.95 32.32 -41.7 -4.32 -1.73 -35.51 50.37 v2.97 l-10.45 13.86 -1.87 0.99 -13.97 20.03 -3.19 -0.22 -3.19 6.49 -0.19 6 Z" />
		</g>
		<g id="water__fill" style="fill:#B5D0D0" inkscape:groupmode="layer" inkscape:label="water (fill)">
			<path style="stroke:none" d="M607.01 63.19 l0.84 -3.16 2.32 -1.9 2.53 -3.79 6.74 -7.58 4.21 -1.26 5.06 -4.85 4.85 -3.16 12.43 -9.48 9.27 -8.85 1.69 -5.9 23.39 -9.9 12.85 -5.06 5.48 -6.32 1.26 -5.27 6.32 3.58 12.64 10.11 -1.26 8.22 -4.64 6.95 -6.32 4 -10.11 2.74 -6.11 2.53 -10.96 1.48 -10.74 4.64 -3.37 4.21 -6.95 3.79 -8.43 4 -4.64 5.06 -3.79 12.43 -5.06 9.9 -8.01 3.79 v3.79 l-1.26 2.11 -1.68 1.68 -19.17 -15.59 0.63 -2.95 Z" />
			<path style="stroke:none" d="M537.69 15.16 l6.74 0.84 5.48 -3.16 -0.42 -3.58 -3.79 -1.26 -1.69 -5.69 -3.58 -6.74 -2.53 -2.11 -4.21 2.32 0.21 3.37 2.53 2.95 0.21 4.85 -0.42 2.95 1.47 5.27 Z" />
			<path style="stroke:none" d="M929.4 395.06 l4.59 -2.11 11.16 -3.15 3.62 -3.44 -7.55 -12.08 -0.55 -18.48 4.72 -6.68 -0.85 -11.9 -0.08 -18.84 1.93 -9.28 1.35 10.19 -0.19 9.2 1.05 22.13 2.63 20.02 4.22 7.9 3.54 6.5 15.5 -1.26 14.55 6.77 28.04 16.96 5.79 -4.74 4.74 -5.27 -4.16 12.45 -1.73 11.78 -4.71 12.56 -9.64 -6 -5.62 -3.5 -4.69 -5.69 -4.74 -11.06 -13.12 -10.93 -15.42 -3.01 -19.06 1.05 -15.33 -0.09 Z" />
			<path style="stroke:none" d="M960.06 123.67 l1.96 -12.25 1.1 -8.05 -1.37 -7.08 -2.58 -3.72 0.25 -9.94 2.45 -8.87 -1.74 -0.48 -2.93 3.64 -4.21 11.74 -13.21 -6.44 -10.69 -8.59 3.09 6.93 5.01 5.01 11.91 9.48 3.04 4.01 1.37 4.94 -2.8 9.81 -5.1 6.9 1.67 1.93 6.52 2.26 6.26 -1.24 Z" />
			<path style="stroke:none" d="M764.75 196.24 l10.85 -3.17 19.63 -1.35 11.56 -5.31 9.18 -1.19 0.55 3.64 -0.42 2.62 -0.61 3.79 -7.68 2.14 -15.84 3.4 -8.16 -0.87 -7.84 -1.03 -11.24 -2.69 Z" />
			<path style="stroke:none" d="M866.65 197.23 l3.24 2.42 1.77 1.32 4.12 -0.6 5.03 1.1 3.58 0.78 -0.75 -4.15 -1.68 -3.69 -2.04 0.62 -2.47 0.74 -1.24 -0.66 -2.99 1.29 -2.27 0.22 -2.21 0.39 -2.09 0.21 Z" />
			<path style="stroke:none" d="M944.93 202.4 l2.74 2.91 3.41 0.56 1.85 -0.28 -0.78 -6.1 0.56 -3.02 -1.4 -2.18 -2.58 -5.32 0.62 -4.48 -0.67 -4.48 -2.24 -3.13 -2.8 -0.67 -0.5 1.68 3.02 3.53 -1.29 4.37 0.56 5.21 2.41 3.41 -1.74 3.47 -1.18 4.53 Z" />
			<path style="stroke:none" d="M1169.11 341.06 l12.19 5.54 7.28 3.09 4.2 -1.98 1.51 1.27 h6.1 l5.86 0.55 4.67 1.11 8.16 -0.32 1.19 -0.24 -0.24 2.53 -2.85 5.38 -1.58 1.35 -5.94 -2.14 -8.55 -3.4 -6.73 -0.4 -2.22 -1.35 -6.41 0.32 -6.97 -5.07 -5.78 -2.69 -4.43 -2.77 -8.08 1.43 -2.38 -0.79 4.59 -0.95 4.43 -0.79 1.98 0.32 Z" />
			<path style="stroke:none" d="M872.11 143.75 l3.17 -1.03 3.25 1.74 2.3 -1.74 6.73 -0.4 2.61 -1.98 2.22 -0.32 0.87 -1.27 0.08 -2.3 -0.79 -2.06 -3.01 -4.51 -1.27 -3.09 3.09 3.72 3.48 3.96 2.14 4.2 -0.24 3.33 -3.17 0.32 -2.93 1.19 -1.74 1.82 -2.38 -0.95 -1.03 0.95 -2.53 -0.47 -1.98 0.87 h-2.69 l-2.61 -1.27 -2.61 0.24 -0.95 -0.95 Z" />
		</g>
		<g id="building__fill" style="fill:#BCA9A9" inkscape:groupmode="layer" inkscape:label="building (fill)">
			<path style="stroke:none" d="M743.15 252.08 l1.57 0.15 -0.38 4.08 -1.57 -0.14 0.38 -4.08 Z" />
			<path style="stroke:none" d="M715.75 227.65 l3.63 1.31 -0.61 1.69 -3.63 -1.31 0.61 -1.69 Z" />
			<path style="stroke:none" d="M767.99 220.36 l3.03 -0.03 0.02 1.84 -3.03 0.03 -0.02 -1.84 Z" />
			<path style="stroke:none" d="M750.92 240.36 l1.88 0.12 -0.48 7.46 -1.88 -0.12 0.48 -7.46 Z" />
			<path style="stroke:none" d="M764.66 264.46 l1.98 0.08 -0.33 7.84 -1.98 -0.08 0.33 -7.84 Z" />
			<path style="stroke:none" d="M726.09 230.57 l1.74 0.35 -1.03 5.14 -1.74 -0.35 1.03 -5.14 Z" />
			<path style="stroke:none" d="M755.38 259.67 l7.44 0.3 -0.09 2.12 -7.44 -0.3 0.09 -2.12 Z" />
			<path style="stroke:none" d="M782.15 220.23 l6.12 0.03 -0.01 1.97 -6.12 -0.03 0.01 -1.97 Z" />
			<path style="stroke:none" d="M766.29 232.47 l2.03 0.09 -0.3 7.26 -2.03 -0.08 0.3 -7.26 Z" />
			<path style="stroke:none" d="M743.5 246.03 l1.72 0.16 -0.38 4.11 -1.72 -0.16 0.38 -4.11 Z" />
			<path style="stroke:none" d="M710.56 225.63 l2.77 0.98 -0.66 1.87 -2.77 -0.98 0.66 -1.87 Z" />
			<path style="stroke:none" d="M752.81 220.59 l2.39 -0.03 0.02 1.87 -2.39 0.03 -0.02 -1.87 Z" />
			<path style="stroke:none" d="M752.3 256.26 l-0.23 7.36 -2.5 -0.08 0.23 -7.36 2.5 0.08 Z" />
			<path style="stroke:none" d="M759.77 220.51 l3.81 -0.05 0.03 1.96 -3.81 0.05 -0.03 -1.96 Z" />
			<path style="stroke:none" d="M750.31 250.77 l1.95 0.16 -0.25 3.1 -1.95 -0.16 0.25 -3.1 Z" />
			<path style="stroke:none" d="M774.42 220.29 l6.15 -0.08 0.03 2.02 -6.15 0.08 -0.02 -2.02 Z" />
			<path style="stroke:none" d="M751.3 231.54 l2 0.08 -0.25 6.2 -2 -0.08 0.25 -6.2 Z" />
			<path style="stroke:none" d="M722.08 229.92 l1.95 0.41 -1.08 5.19 -1.95 -0.41 1.08 -5.19 Z" />
			<path style="stroke:none" d="M765.14 254.6 l1.97 0.08 -0.3 7.41 -1.97 -0.08 0.3 -7.41 Z" />
			<path style="stroke:none" d="M736.27 232.52 l1.96 0.31 -0.38 2.37 -1.96 -0.31 0.38 -2.37 Z" />
			<path style="stroke:none" d="M732.24 231.79 l1.95 0.39 -1.08 5.34 -1.95 -0.39 1.08 -5.34 Z" />
			<path style="stroke:none" d="M757.65 232.14 l6.35 0.25 -0.08 2.05 -6.35 -0.25 0.08 -2.06 Z" />
			<path style="stroke:none" d="M715.01 249.76 l-2.9 -1.96 3.87 -5.72 2.9 1.96 -3.87 5.72 Z" />
			<path style="stroke:none" d="M708.06 257.41 l-1.73 -1.09 2.94 -4.64 1.73 1.09 -2.94 4.64 Z" />
			<path style="stroke:none" d="M709.93 262.74 l1.53 -2.41 6.73 4.29 -1.04 1.63 2 1.27 -0.5 0.78 -8.73 -5.56 Z" />
			<path style="stroke:none" d="M732.8 259.89 l-1.63 -0.6 3.09 -8.43 1.63 0.6 -3.09 8.43 Z" />
			<path style="stroke:none" d="M729.55 257.1 l-1.32 -0.44 1.62 -4.87 1.32 0.44 -1.62 4.87 Z" />
			<path style="stroke:none" d="M703.98 246.65 l-1.81 -1.04 3.32 -5.8 1.81 1.04 -3.33 5.8 Z" />
			<path style="stroke:none" d="M717.3 213.86 l1.18 -2.21 1.76 0.94 -1.18 2.21 -1.76 -0.94 Z" />
			<path style="stroke:none" d="M737.6 211.33 l0.6 -1.64 1.82 0.66 -0.6 1.64 -1.82 -0.66 Z" />
			<path style="stroke:none" d="M751.41 215.9 l0.19 -2.04 2.92 0.27 -0.19 2.04 -2.92 -0.27 Z" />
			<path style="stroke:none" d="M734.24 210.28 l0.47 -1.45 1.87 0.6 -0.47 1.45 -1.87 -0.6 Z" />
			<path style="stroke:none" d="M765.6 217.33 l0.04 -1.21 1.87 0.05 -0.04 1.21 -1.87 -0.06 Z" />
			<path style="stroke:none" d="M726.54 217 l0.41 -1.33 1.6 0.5 -0.41 1.33 -1.6 -0.5 Z" />
			<path style="stroke:none" d="M745.8 214.58 l0.4 -1.93 3.47 0.71 -0.4 1.93 -3.47 -0.71 Z" />
			<path style="stroke:none" d="M760.1 217.16 v-2.26 h1.93 v2.26 h-1.93 Z" />
			<path style="stroke:none" d="M720.49 206.93 l0.51 -1.83 2.37 0.66 -0.51 1.83 -2.37 -0.66 Z" />
			<path style="stroke:none" d="M721.42 215.07 l0.61 -2.14 1.58 0.45 -0.6 2.14 -1.59 -0.45 Z" />
			<path style="stroke:none" d="M740.57 212.32 l0.58 -1.7 2.59 0.88 -0.58 1.7 -2.59 -0.88 Z" />
			<path style="stroke:none" d="M771.82 217.38 l0.04 -1.6 2.42 0.06 -0.04 1.6 -2.42 -0.05 Z" />
			<path style="stroke:none" d="M739.69 221.01 l0.52 -1.43 1.98 0.71 -0.52 1.43 -1.98 -0.71 Z" />
			<path style="stroke:none" d="M735.12 219.8 l0.51 -1.52 2.48 0.82 -0.51 1.52 -2.48 -0.83 Z" />
			<path style="stroke:none" d="M748.27 223.05 l0.11 -1.87 1.21 0.07 -0.11 1.87 -1.21 -0.07 Z" />
			<path style="stroke:none" d="M768.79 217.16 l0.04 -1.49 2.31 0.06 -0.04 1.49 -2.31 -0.06 Z" />
			<path style="stroke:none" d="M729.62 209.18 l0.7 -1.81 1.98 0.77 -0.7 1.81 -1.98 -0.77 Z" />
			<path style="stroke:none" d="M730.39 218.15 l0.7 -1.88 3.08 1.16 -0.7 1.88 -3.08 -1.16 Z" />
			<path style="stroke:none" d="M744.81 222.39 v-1.98 h2.48 v1.98 h-2.48 Z" />
			<path style="stroke:none" d="M726.1 207.92 l0.55 -1.51 2.42 0.88 -0.55 1.51 -2.42 -0.88 Z" />
			<path style="stroke:none" d="M756.2 216.28 l0.1 -1.81 1.98 0.11 -0.1 1.81 -1.98 -0.11 Z" />
			<path style="stroke:none" d="M702.47 213.46 l-0.82 -0.58 0.69 -0.98 0.82 0.58 -0.69 0.97 Z" />
			<path style="stroke:none" d="M899.38 188.8 l-0.87 -0.09 0.2 -1.82 0.87 0.09 -0.2 1.82 Z" />
			<path style="stroke:none" d="M895.03 190.11 l-0.77 -0.2 0.24 -0.91 0.77 0.2 -0.24 0.91 Z" />
			<path style="stroke:none" d="M902.7 191.18 l0.14 -1 1.38 0.2 -0.14 1 -1.38 -0.2 Z" />
			<path style="stroke:none" d="M890.24 187.77 l0.12 -1.46 1.04 0.08 -0.12 1.46 -1.04 -0.08 Z" />
			<path style="stroke:none" d="M906.42 190.42 l0.24 -1.07 1.78 0.39 -0.24 1.07 -1.78 -0.4 Z" />
			<path style="stroke:none" d="M885.57 184.96 l0.15 -1.71 2.26 0.2 -0.15 1.71 -2.26 -0.2 Z" />
			<path style="stroke:none" d="M892.5 187.3 l0.24 -1.25 1.62 0.32 -0.24 1.25 -1.62 -0.32 Z" />
			<path style="stroke:none" d="M899.82 189.75 l0.24 -1.58 1.82 0.28 -0.24 1.59 -1.82 -0.28 Z" />
			<path style="stroke:none" d="M895.94 186.23 l-1.2 -0.32 0.36 -1.35 1.2 0.32 -0.36 1.35 Z" />
			<path style="stroke:none" d="M884.31 186.75 l-1.8 -0.19 0.2 -1.9 1.8 0.19 -0.2 1.9 Z" />
			<path style="stroke:none" d="M814.82 242.29 l0.12 -1.07 1.99 0.23 -0.12 1.07 -1.99 -0.23 Z" />
			<path style="stroke:none" d="M737.18 271.08 l0.49 -1.4 3.64 1.28 -0.49 1.4 -3.64 -1.28 Z" />
			<path style="stroke:none" d="M747.6 273.1 l-1.42 -0.5 2.53 -7.19 1.42 0.5 -2.53 7.19 Z" />
			<path style="stroke:none" d="M743.75 333.23 l-1.49 -0.65 4.2 -9.61 1.49 0.65 -4.2 9.61 Z" />
			<path style="stroke:none" d="M743.44 265.52 l-2.17 -0.08 0.13 -3.52 2.17 0.08 -0.13 3.52 Z" />
			<path style="stroke:none" d="M797.03 236.35 l0.09 -2.17 1.64 0.07 -0.09 2.17 -1.64 -0.07 Z" />
			<path style="stroke:none" d="M786.27 235.86 l-1.5 -0.07 0.09 -1.85 1.5 0.07 -0.09 1.85 Z" />
			<path style="stroke:none" d="M733.28 269.37 l0.42 -1.19 2.7 0.95 -0.42 1.19 -2.7 -0.95 Z" />
			<path style="stroke:none" d="M820.76 237.17 l0.09 -1.96 1.9 0.09 -0.09 1.96 -1.9 -0.09 Z" />
			<path style="stroke:none" d="M739.18 274.7 l1.13 0.57 -1.29 2.56 -1.13 -0.57 1.29 -2.56 Z" />
			<path style="stroke:none" d="M804.53 241.91 l0.12 -1.07 1.99 0.23 -0.12 1.07 -1.99 -0.23 Z" />
			<path style="stroke:none" d="M826.09 237.53 v-1.9 h1.76 v1.9 h-1.76 Z" />
			<path style="stroke:none" d="M756.51 269.71 l0.09 -2.49 1.06 0.04 -0.09 2.49 -1.06 -0.04 Z" />
			<path style="stroke:none" d="M809.53 241.93 l0.12 -1.07 1.99 0.23 -0.12 1.07 -1.99 -0.23 Z" />
			<path style="stroke:none" d="M825.71 242.83 l0.12 -1.07 1.99 0.23 -0.12 1.07 -1.99 -0.23 Z" />
			<path style="stroke:none" d="M749.5 275.86 l0.45 -1.04 1.09 0.48 -0.45 1.04 -1.09 -0.48 Z" />
			<path style="stroke:none" d="M815.24 236.99 l0.11 -1.94 2.3 0.14 -0.11 1.94 -2.3 -0.13 Z" />
			<path style="stroke:none" d="M756.37 274.55 l0.04 -1.13 1.05 0.04 -0.04 1.13 -1.05 -0.04 Z" />
			<path style="stroke:none" d="M809.96 236.67 l0.14 -1.64 2.12 0.18 -0.14 1.64 -2.12 -0.18 Z" />
			<path style="stroke:none" d="M804.53 236.4 l0.22 -1.79 2.17 0.27 -0.22 1.79 -2.17 -0.27 Z" />
			<path style="stroke:none" d="M820.33 242.52 l0.12 -1.07 1.99 0.23 -0.12 1.07 -1.99 -0.23 Z" />
			<path style="stroke:none" d="M706.91 343.3 l1.84 -2.42 4.29 3.26 -1.84 2.42 -4.29 -3.27 Z" />
			<path style="stroke:none" d="M751.35 273.87 l2.3 -5.85 1.55 0.61 -2.3 5.85 -1.55 -0.61 Z" />
			<path style="stroke:none" d="M744.38 278.69 l2.94 1.33 -3.11 6.88 -2.94 -1.33 3.11 -6.88 Z" />
			<path style="stroke:none" d="M754.52 298.84 l2.71 0.66 -2.74 11.21 -2.71 -0.66 2.74 -11.21 Z" />
			<path style="stroke:none" d="M763.59 287.59 l2.94 0.33 -0.44 4 -2.94 -0.33 0.44 -4 Z" />
			<path style="stroke:none" d="M748.79 299.88 l1.8 0.49 -1.89 6.96 -1.8 -0.49 1.89 -6.96 Z" />
			<path style="stroke:none" d="M753.12 294.07 l1.89 0.06 -0.11 3.55 -1.89 -0.06 0.11 -3.55 Z" />
		</g>
	</g>
	<g id="Line_artwork" style="stroke-linejoin:round" inkscape:groupmode="layer" inkscape:label="Line artwork">
		<g id="stream" style="stroke:#B5D0D0;stroke-width:1.38" inkscape:groupmode="layer" inkscape:label="stream">
			<use xlink:href="#3" />
		</g>
		<g id="railway_rail__border" style="stroke:#808080;stroke-width:3" inkscape:groupmode="layer" inkscape:label="railway rail (border)">
			<use xlink:href="#11" />
		</g>
		<g id="highway_track__border" style="stroke:#FFFFFF;stroke-opacity:0.3;stroke-width:2.06" inkscape:groupmode="layer" inkscape:label="highway track (border)">
			<use xlink:href="#17" />
		</g>
		<g id="highway_service__border" style="stroke:#CBCB8E;stroke-width:2.28" inkscape:groupmode="layer" inkscape:label="highway service (border)">
			<use xlink:href="#18" />
		</g>
		<g id="highway_residential__border" style="stroke:#BFBFBF;stroke-width:4.15" inkscape:groupmode="layer" inkscape:label="highway residential (border)">
			<use xlink:href="#19" />
		</g>
		<g id="highway_unclassified__border" style="stroke:#BFBFBF;stroke-width:4.15" inkscape:groupmode="layer" inkscape:label="highway unclassified (border)">
			<use xlink:href="#20" />
		</g>
		<g id="highway_tertiary__border" style="stroke:#CBCB8E;stroke-width:6.52" inkscape:groupmode="layer" inkscape:label="highway tertiary (border)">
			<use xlink:href="#21" />
		</g>
		<g id="highway_secondary__border" style="stroke:#CAA36F;stroke-width:5.51" inkscape:groupmode="layer" inkscape:label="highway secondary (border)">
			<use xlink:href="#22" />
		</g>
		<g id="highway_trunk__border" style="stroke:#78A878;stroke-width:6.52" inkscape:groupmode="layer" inkscape:label="highway trunk (border)">
			<use xlink:href="#23" />
		</g>
		<g id="railway_rail__border1" style="stroke:#808080;stroke-width:3" inkscape:groupmode="layer" inkscape:label="railway rail (border)">
			<use xlink:href="#24" />
		</g>
		<g id="railway_rail" style="stroke:#808080;stroke-width:2" inkscape:groupmode="layer" inkscape:label="railway rail">
			<use xlink:href="#27" />
		</g>
		<g id="railway_rail1" style="stroke-dasharray:12,12;stroke:#FFFFFF;stroke-width:2" inkscape:groupmode="layer" inkscape:label="railway rail">
			<use xlink:href="#11" />
		</g>
		<g id="stream1" style="stroke:#B5D0D0;stroke-width:1.38" inkscape:groupmode="layer" inkscape:label="stream">
			<use xlink:href="#34" />
		</g>
		<g id="line_barrier" style="stroke:#000000" inkscape:groupmode="layer" inkscape:label="line barrier">
			<use xlink:href="#35" />
		</g>
		<g id="highway_track" style="stroke-dasharray:2.06,0.69;stroke-linecap:round;stroke:#9D7517;stroke-width:0.69" inkscape:groupmode="layer" inkscape:label="highway track">
			<use xlink:href="#17" />
		</g>
		<g id="highway_service" style="stroke-linecap:round;stroke:#FFFFFF;stroke-width:1.75" inkscape:groupmode="layer" inkscape:label="highway service">
			<use xlink:href="#18" />
		</g>
		<g id="highway_residential" style="stroke-linecap:round;stroke:#FFFFFF;stroke-width:3.19" inkscape:groupmode="layer" inkscape:label="highway residential">
			<use xlink:href="#19" />
		</g>
		<g id="highway_unclassified" style="stroke-linecap:round;stroke:#FFFFFF;stroke-width:3.19" inkscape:groupmode="layer" inkscape:label="highway unclassified">
			<use xlink:href="#20" />
		</g>
		<g id="highway_tertiary" style="stroke-linecap:round;stroke:#FEFEB2;stroke-width:5.01" inkscape:groupmode="layer" inkscape:label="highway tertiary">
			<use xlink:href="#21" />
		</g>
		<g id="highway_secondary" style="stroke-linecap:round;stroke:#FDD6A4;stroke-width:5.01" inkscape:groupmode="layer" inkscape:label="highway secondary">
			<use xlink:href="#22" />
		</g>
		<g id="highway_trunk" style="stroke-linecap:round;stroke:#96D296;stroke-width:5.01" inkscape:groupmode="layer" inkscape:label="highway trunk">
			<use xlink:href="#23" />
		</g>
		<g id="railway_rail11" style="stroke:#808080;stroke-width:2" inkscape:groupmode="layer" inkscape:label="railway rail">
			<use xlink:href="#36" />
		</g>
		<g id="railway_rail111" style="stroke-dasharray:12,12;stroke:#FFFFFF;stroke-width:2" inkscape:groupmode="layer" inkscape:label="railway rail">
			<use xlink:href="#24" />
		</g>
		<g id="boundary_municipal" style="stroke-dasharray:5.63,1.88;stroke:#9E1A99;stroke-opacity:0.5;stroke-width:1.88" inkscape:groupmode="layer" inkscape:label="boundary municipal">
			<use xlink:href="#38" />
		</g>
		<g id="highway_secondary__border1" style="stroke:#000000;stroke-width:5.81" inkscape:groupmode="layer" inkscape:label="highway secondary (border)">
			<use xlink:href="#44" />
		</g>
		<g id="railway_rail__border11" style="stroke:#808080;stroke-width:3" inkscape:groupmode="layer" inkscape:label="railway rail (border)">
			<use xlink:href="#45" />
		</g>
		<g id="highway_secondary1" style="stroke-linecap:round;stroke:#FDD6A4;stroke-width:5.01" inkscape:groupmode="layer" inkscape:label="highway secondary">
			<use xlink:href="#44" />
		</g>
		<g id="railway_rail1111" style="stroke:#808080;stroke-width:2" inkscape:groupmode="layer" inkscape:label="railway rail">
			<use xlink:href="#46" />
		</g>
		<g id="railway_rail11111" style="stroke-dasharray:12,12;stroke:#FFFFFF;stroke-width:2" inkscape:groupmode="layer" inkscape:label="railway rail">
			<use xlink:href="#45" />
		</g>
	</g>
	<g id="Symbols__icons" style="fill:#7981B0;stroke-linejoin:round;stroke:#7981B0;stroke-width:3" inkscape:groupmode="layer" inkscape:label="Symbols &amp; icons">
		<g id="railway_station__shape" inkscape:groupmode="layer" inkscape:label="railway station (shape)">
			<use transform="translate(665.59,258.48)" xlink:href="#symbol_shape_22" />
		</g>
		<g id="railway_station__shape1" inkscape:groupmode="layer" inkscape:label="railway station (shape)">
			<use transform="translate(665.59,258.48)" xlink:href="#symbol_shape_23" />
		</g>
	</g>
	<g id="Layer_799" style="stroke:#000000;font-family:Verdana;font-size:7px;font-weight:bold" inkscape:groupmode="layer" inkscape:label="Layer 799">
		<g id="highway_secondary__text" inkscape:groupmode="layer" inkscape:label="highway secondary (text)">
			<g style="stroke-width:1.75;stroke:#FFFFFF;fill:none;stroke-opacity:0.75">
				<use xlink:href="#symbol_text_24" />
			</g>
			<g style="fill:#000000;stroke:none;fill-opacity:1">
				<use xlink:href="#symbol_text_24" />
			</g>
			<g style="stroke-width:1.75;stroke:#FFFFFF;fill:none;stroke-opacity:0.75">
				<use xlink:href="#symbol_text_25" />
			</g>
			<g style="fill:#000000;stroke:none;fill-opacity:1">
				<use xlink:href="#symbol_text_25" />
			</g>
		</g>
	</g>
	<g id="Labels" style="stroke:#000000;font-family:Verdana;font-size:12.19px;font-weight:bold" inkscape:groupmode="layer" inkscape:label="Labels">
		<g id="place_town__text" inkscape:groupmode="layer" inkscape:label="place town (text)">
			<g style="stroke-width:3.05;stroke:#FFFFFF;fill:none;stroke-opacity:0.75">
				<use xlink:href="#symbol_text_26" />
			</g>
			<g style="fill:#000000;stroke:none;fill-opacity:1">
				<use xlink:href="#symbol_text_26" />
			</g>
		</g>
	</g>
	<g id="Map_decoration" inkscape:groupmode="layer" inkscape:label="Map decoration">
		<g id="map_grid__latitude" style="stroke:#B0B0B0;stroke-width:0.5;font-family:Tahoma;font-size:12px;font-weight:bold" inkscape:groupmode="layer" inkscape:label="map grid (latitude)">
			<path style="fill:none" d="M-0.5 614.58 h1366" />
			<g style="stroke-width:2;stroke:#FFFFFF;fill:none;stroke-opacity:1">
				<use xlink:href="#symbol_text_27" />
			</g>
			<g style="fill:#303030;stroke:none;fill-opacity:1">
				<use xlink:href="#symbol_text_27" />
			</g>
			<path style="fill:none" d="M-0.5 333.65 h1366" />
			<g style="stroke-width:2;stroke:#FFFFFF;fill:none;stroke-opacity:1">
				<use xlink:href="#symbol_text_28" />
			</g>
			<g style="fill:#303030;stroke:none;fill-opacity:1">
				<use xlink:href="#symbol_text_28" />
			</g>
			<path style="fill:none" d="M-0.5 52.6 h1366" />
			<g style="stroke-width:2;stroke:#FFFFFF;fill:none;stroke-opacity:1">
				<use xlink:href="#symbol_text_29" />
			</g>
			<g style="fill:#303030;stroke:none;fill-opacity:1">
				<use xlink:href="#symbol_text_29" />
			</g>
		</g>
		<g id="map_grid__longitude" style="stroke:#B0B0B0;stroke-width:0.5;font-family:Tahoma;font-size:12px;font-weight:bold" inkscape:groupmode="layer" inkscape:label="map grid (longitude)">
			<path style="fill:none" d="M-44.58 454.5 v-455" />
			<g style="stroke-width:2;stroke:#FFFFFF;fill:none;stroke-opacity:1">
				<use xlink:href="#symbol_text_30" />
			</g>
			<g style="fill:#303030;stroke:none;fill-opacity:1">
				<use xlink:href="#symbol_text_30" />
			</g>
			<path style="fill:none" d="M119.05 454.5 v-455" />
			<g style="stroke-width:2;stroke:#FFFFFF;fill:none;stroke-opacity:1">
				<use xlink:href="#symbol_text_31" />
			</g>
			<g style="fill:#303030;stroke:none;fill-opacity:1">
				<use xlink:href="#symbol_text_31" />
			</g>
			<path style="fill:none" d="M282.69 454.5 v-455" />
			<g style="stroke-width:2;stroke:#FFFFFF;fill:none;stroke-opacity:1">
				<use xlink:href="#symbol_text_32" />
			</g>
			<g style="fill:#303030;stroke:none;fill-opacity:1">
				<use xlink:href="#symbol_text_32" />
			</g>
			<path style="fill:none" d="M446.33 454.5 v-455" />
			<g style="stroke-width:2;stroke:#FFFFFF;fill:none;stroke-opacity:1">
				<use xlink:href="#symbol_text_33" />
			</g>
			<g style="fill:#303030;stroke:none;fill-opacity:1">
				<use xlink:href="#symbol_text_33" />
			</g>
			<path style="fill:none" d="M609.97 454.5 v-455" />
			<g style="stroke-width:2;stroke:#FFFFFF;fill:none;stroke-opacity:1">
				<use xlink:href="#symbol_text_34" />
			</g>
			<g style="fill:#303030;stroke:none;fill-opacity:1">
				<use xlink:href="#symbol_text_34" />
			</g>
			<path style="fill:none" d="M773.61 454.5 v-455" />
			<g style="stroke-width:2;stroke:#FFFFFF;fill:none;stroke-opacity:1">
				<use xlink:href="#symbol_text_35" />
			</g>
			<g style="fill:#303030;stroke:none;fill-opacity:1">
				<use xlink:href="#symbol_text_35" />
			</g>
			<path style="fill:none" d="M937.25 454.5 v-455" />
			<g style="stroke-width:2;stroke:#FFFFFF;fill:none;stroke-opacity:1">
				<use xlink:href="#symbol_text_36" />
			</g>
			<g style="fill:#303030;stroke:none;fill-opacity:1">
				<use xlink:href="#symbol_text_36" />
			</g>
			<path style="fill:none" d="M1100.89 454.5 v-455" />
			<g style="stroke-width:2;stroke:#FFFFFF;fill:none;stroke-opacity:1">
				<use xlink:href="#symbol_text_37" />
			</g>
			<g style="fill:#303030;stroke:none;fill-opacity:1">
				<use xlink:href="#symbol_text_37" />
			</g>
			<path style="fill:none" d="M1264.53 454.5 v-455" />
			<g style="stroke-width:2;stroke:#FFFFFF;fill:none;stroke-opacity:1">
				<use xlink:href="#symbol_text_38" />
			</g>
			<g style="fill:#303030;stroke:none;fill-opacity:1">
				<use xlink:href="#symbol_text_38" />
			</g>
		</g>
		<g id="map_scale__text" style="stroke:#000000;font-family:Tahoma;font-size:12px;font-weight:bold" inkscape:groupmode="layer" inkscape:label="map scale (text)">
			<g style="stroke-width:3;stroke:#FFFFFF;fill:none;stroke-opacity:1">
				<use xlink:href="#symbol_text_39" />
			</g>
			<g style="fill:#000000;stroke:none;fill-opacity:1">
				<use xlink:href="#symbol_text_39" />
			</g>
			<g style="stroke-width:3;stroke:#FFFFFF;fill:none;stroke-opacity:1">
				<use xlink:href="#symbol_text_40" />
			</g>
			<g style="fill:#000000;stroke:none;fill-opacity:1">
				<use xlink:href="#symbol_text_40" />
			</g>
		</g>
		<g id="map_scale__indicator" style="fill:#000000;stroke:#000000" inkscape:groupmode="layer" inkscape:label="map scale (indicator)">
			<rect x="6" y="427" width="31.33" height="7" style="stroke:#000000" />
		</g>
		<g id="map_scale__indicator1" style="fill:#FFFFFF;stroke:#000000" inkscape:groupmode="layer" inkscape:label="map scale (indicator)">
			<rect x="36.33" y="427" width="31.33" height="7" style="stroke:#000000" />
		</g>
		<g id="map_scale__indicator11" style="fill:#000000;stroke:#000000" inkscape:groupmode="layer" inkscape:label="map scale (indicator)">
			<rect x="66.66" y="427" width="31.33" height="7" style="stroke:#000000" />
		</g>
		<g id="map_scale__indicator111" style="fill:#FFFFFF;stroke:#000000" inkscape:groupmode="layer" inkscape:label="map scale (indicator)">
			<rect x="96.99" y="427" width="31.33" height="7" style="stroke:#000000" />
		</g>
		<g id="map_scale__indicator1111" style="fill:#000000;stroke:#000000" inkscape:groupmode="layer" inkscape:label="map scale (indicator)">
			<rect x="127.32" y="427" width="31.33" height="7" style="stroke:#000000" />
		</g>
		<g id="floating_label" style="stroke:#000000;font-family:Tahoma;font-size:14px;font-weight:bold" inkscape:groupmode="layer" inkscape:label="floating label">
			<g style="stroke-width:3;stroke:#FFFFFF;fill:none;stroke-opacity:0.75">
				<use xlink:href="#symbol_text_41" />
			</g>
			<g style="fill:#000000;stroke:none;fill-opacity:1">
				<use xlink:href="#symbol_text_41" />
			</g>
		</g>
	</g>
	<g id="Map_frame" style="stroke:black;stroke-width:2;fill:none" inkscape:groupmode="layer" inkscape:label="Map frame">
		<rect x="0" y="0" width="1366" height="455" />
	</g>
</svg>